<svg height="580" width="580" xmlns="http://www.w3.org/2000/svg"><path d="m66.275 1.768c-41.335 0-64.571 21.371-64.571 65.036v450.123c0 40.844 20.895 62.229 62.192 62.229h452.024c41.307 0 62.229-20.315 62.229-62.229v-450.123c0-42.601-20.922-65.036-63.521-65.036-.004 0-448.495-.143-448.353 0z" fill="none"/><path d="m-4.9023438-73.108887-2.1203613 7.480469h-10.7995609l2.600098 20.639648h8.8391114l2.6403808-20.639648h-1.9995117l2.0800781-7.120361zm-14.2004392 19.520264c.213196-1.866853-1.19997-2.880035-4.239502-3.039551h-7.320557c-3.039556.159516-4.46615 1.172698-4.279785 3.039551zm-15.839844 5.600586c-.186365 1.866048 1.240229 2.865803 4.279785 2.999267h7.320557c3.039532-.133464 4.452698-1.133219 4.239502-2.999267zm15.159912-4.160156h-14.520264c-.372725.000006-.692549.133266-.959472.39978-.266931.266525-.400394.573125-.400391.9198-.000003.400395.13346.727136.400391.980224.266923.253096.586747.379642.959472.379639h14.520264c.373516.000003.693543-.126543.960083-.379639.2665-.253088.39976-.579829.39978-.980224-.00002-.346675-.13328-.653275-.39978-.9198-.26654-.266514-.586567-.399774-.960083-.39978z" fill="#734a08" transform="matrix(14.685839 0 0 14.685839 577.76584 1150.0639)"/></svg>