<?xml version="1.0" encoding="UTF-8" standalone="no"?>
<svg xmlns="http://www.w3.org/2000/svg" version="1.0" width="580" height="580">
 <metadata id="metadata10"/>
 <path id="path892" d="m 59.958592,172.21025 c -6.002991,8.1e-4 -10.869174,4.86699 -10.869975,10.86998 v 345.74414 c 1.73e-4,4.98825 3.394147,9.33714 7.323352,10.15166 l 49.613551,0.81371 c 6.00299,-8e-4 10.86916,-4.86698 10.86997,-10.86998 v -129.9178 h 77.2421 c 50.62948,0 87.67516,-10.20085 108.68666,-33.32262 21.0115,-23.12176 31.47822,-51.08739 31.47822,-82.80335 0,-18.33711 -3.78123,-35.85807 -11.54526,-51.70674 -7.66651,-15.74519 -18.10613,-28.4899 -31.25936,-37.58755 -13.04455,-9.02249 -28.80658,-14.87765 -46.96106,-17.95763 -13.2947,-2.28508 -31.07171,-3.41382 -54.32556,-3.41382 z m 57.034168,62.73197 h 77.24023 c 20.25753,0 34.39894,1.29585 39.79298,2.69739 9.47125,2.6339 16.72434,7.70392 22.66963,16.1525 5.89757,8.38077 8.93766,18.37373 8.93766,30.90396 0,17.72354 -5.00249,29.53112 -14.88238,38.37133 -9.65505,8.30803 -27.96066,13.87413 -56.03901,13.87413 h -77.71911 z" opacity="0.8" fill="none" stroke="#ffffff" vector-effect="none" stroke-linejoin="round" stroke-width="64"/>
 <g transform="matrix(0.35456756,0,0,0.35456756,366.59155,37.46991)" id="g900" opacity="0.8" fill="none" stroke="#ffffff" vector-effect="none" stroke-linejoin="round" stroke-width="180.5">
  <path id="path894" d="M 243,0 C 108.8,0 0,108.8 0,243 0,377.2 108.8,486 243,486 377.2,486 486,377.2 486,243 486,108.8 377.2,0 243,0 Z m 69.8,338.8 c -10.6,12.9 -24.4,21.6 -40.5,26 -7,1.9 -10.2,5.6 -9.8,12.9 0.3,7.2 0,14.3 -0.1,21.5 0,6.4 -3.3,9.8 -9.6,10 -4.1,0.1 -8.2,0.2 -12.3,0.2 -3.6,0 -7.2,0 -10.8,-0.1 -6.8,-0.1 -10,-4 -10,-10.6 -0.1,-5.2 -0.1,-10.5 -0.1,-15.7 -0.1,-11.6 -0.5,-12 -11.6,-13.8 -14.2,-2.3 -28.2,-5.5 -41.2,-11.8 -10.2,-5 -11.3,-7.5 -8.4,-18.3 2.2,-8 4.4,-16 6.9,-23.9 1.8,-5.8 3.5,-8.4 6.6,-8.4 1.8,0 4.1,0.9 7.2,2.5 14.4,7.5 29.7,11.7 45.8,13.7 2.7,0.3 5.4,0.5 8.1,0.5 7.5,0 14.8,-1.4 21.9,-4.5 17.9,-7.8 20.7,-28.5 5.6,-40.9 -5.1,-4.2 -11,-7.3 -17.1,-10 -15.7,-6.9 -32,-12.1 -46.8,-21 -24,-14.4 -39.2,-34.1 -37.4,-63.3 2,-33 20.7,-53.6 51,-64.6 12.5,-4.5 12.6,-4.4 12.6,-17.4 0,-4.4 -0.1,-8.8 0.1,-13.3 0.3,-9.8 1.9,-11.5 11.7,-11.8 1.1,0 2.3,0 3.4,0 1.9,0 3.8,0 5.7,0 0.8,0 1.6,0 2.3,0 18.6,0 18.6,0.8 18.7,20.9 0.1,14.8 0.1,14.8 14.8,17.1 11.3,1.8 22,5.1 32.4,9.7 5.7,2.5 7.9,6.5 6.1,12.6 -2.6,9 -5.1,18.1 -7.9,27 -1.8,5.4 -3.5,7.9 -6.7,7.9 -1.8,0 -4,-0.7 -6.8,-2.1 -14.4,-7 -29.5,-10.4 -45.3,-10.4 -2,0 -4.1,0.1 -6.1,0.2 -4.7,0.3 -9.3,0.9 -13.7,2.8 -15.6,6.8 -18.1,24 -4.8,34.6 6.7,5.4 14.4,9.2 22.3,12.5 13.8,5.7 27.6,11.2 40.7,18.4 41.2,23 52.4,75.3 23.1,110.9 z" vector-effect="none" stroke-width="180.5"/>
 </g>
 <path d="m 59.958592,172.21025 c -6.002991,8.1e-4 -10.869174,4.86699 -10.869975,10.86998 v 345.74414 c 1.73e-4,4.98825 3.394147,9.33714 7.323352,10.15166 l 49.613551,0.81371 c 6.00299,-8e-4 10.86916,-4.86698 10.86997,-10.86998 v -129.9178 h 77.2421 c 50.62948,0 87.67516,-10.20085 108.68666,-33.32262 21.0115,-23.12176 31.47822,-51.08739 31.47822,-82.80335 0,-18.33711 -3.78123,-35.85807 -11.54526,-51.70674 -7.66651,-15.74519 -18.10613,-28.4899 -31.25936,-37.58755 -13.04455,-9.02249 -28.80658,-14.87765 -46.96106,-17.95763 -13.2947,-2.28508 -31.07171,-3.41382 -54.32556,-3.41382 z m 57.034168,62.73197 h 77.24023 c 20.25753,0 34.39894,1.29585 39.79298,2.69739 9.47125,2.6339 16.72434,7.70392 22.66963,16.1525 5.89757,8.38077 8.93766,18.37373 8.93766,30.90396 0,17.72354 -5.00249,29.53112 -14.88238,38.37133 -9.65505,8.30803 -27.96066,13.87413 -56.03901,13.87413 h -77.71911 z" id="path4136" fill="#20a0a0" stroke="none"/>
 <g id="g8" transform="matrix(0.35456756,0,0,0.35456756,366.59155,37.46991)" opacity="1" fill="#20a0a0" stroke="none" vector-effect="none">
  <path d="M 243,0 C 108.8,0 0,108.8 0,243 0,377.2 108.8,486 243,486 377.2,486 486,377.2 486,243 486,108.8 377.2,0 243,0 Z m 69.8,338.8 c -10.6,12.9 -24.4,21.6 -40.5,26 -7,1.9 -10.2,5.6 -9.8,12.9 0.3,7.2 0,14.3 -0.1,21.5 0,6.4 -3.3,9.8 -9.6,10 -4.1,0.1 -8.2,0.2 -12.3,0.2 -3.6,0 -7.2,0 -10.8,-0.1 -6.8,-0.1 -10,-4 -10,-10.6 -0.1,-5.2 -0.1,-10.5 -0.1,-15.7 -0.1,-11.6 -0.5,-12 -11.6,-13.8 -14.2,-2.3 -28.2,-5.5 -41.2,-11.8 -10.2,-5 -11.3,-7.5 -8.4,-18.3 2.2,-8 4.4,-16 6.9,-23.9 1.8,-5.8 3.5,-8.4 6.6,-8.4 1.8,0 4.1,0.9 7.2,2.5 14.4,7.5 29.7,11.7 45.8,13.7 2.7,0.3 5.4,0.5 8.1,0.5 7.5,0 14.8,-1.4 21.9,-4.5 17.9,-7.8 20.7,-28.5 5.6,-40.9 -5.1,-4.2 -11,-7.3 -17.1,-10 -15.7,-6.9 -32,-12.1 -46.8,-21 -24,-14.4 -39.2,-34.1 -37.4,-63.3 2,-33 20.7,-53.6 51,-64.6 12.5,-4.5 12.6,-4.4 12.6,-17.4 0,-4.4 -0.1,-8.8 0.1,-13.3 0.3,-9.8 1.9,-11.5 11.7,-11.8 1.1,0 2.3,0 3.4,0 1.9,0 3.8,0 5.7,0 0.8,0 1.6,0 2.3,0 18.6,0 18.6,0.8 18.7,20.9 0.1,14.8 0.1,14.8 14.8,17.1 11.3,1.8 22,5.1 32.4,9.7 5.7,2.5 7.9,6.5 6.1,12.6 -2.6,9 -5.1,18.1 -7.9,27 -1.8,5.4 -3.5,7.9 -6.7,7.9 -1.8,0 -4,-0.7 -6.8,-2.1 -14.4,-7 -29.5,-10.4 -45.3,-10.4 -2,0 -4.1,0.1 -6.1,0.2 -4.7,0.3 -9.3,0.9 -13.7,2.8 -15.6,6.8 -18.1,24 -4.8,34.6 6.7,5.4 14.4,9.2 22.3,12.5 13.8,5.7 27.6,11.2 40.7,18.4 41.2,23 52.4,75.3 23.1,110.9 z" id="path2" vector-effect="none" stroke-width="3.53"/>
 </g>
</svg>
