<?xml version="1.0" encoding="UTF-8" standalone="no"?>
<svg xmlns="http://www.w3.org/2000/svg" version="1.0" width="580" height="580">
 <metadata id="metadata2975"/>
 <path d="M 270.36512,525.7371 V 168.4267 h -28.3077 v 357.3104 z" id="path888" opacity="0.8" fill="none" stroke="#ffffff" vector-effect="none" stroke-width="64"/>
 <path d="m 99.727128,233.75215 c -8.90802,0 -16.82626,3.16729 -24.05164,9.60086 -5.34481,4.9489 -8.90802,10.49168 -10.68962,16.6283 l -24.64551,82.1517 c -3.34704,9.8253 3.68698,16.97893 11.18451,17.1232 5.74072,0 9.50188,-3.1673 11.28349,-9.60087 l 22.46799,-75.22325 h 12.27326 l -36.62184,133.62023 h 35.63207 v 103.92684 c 0,9.30393 4.454012,13.85691 13.362022,13.85691 8.90801,0 13.36203,-4.65196 13.36203,-13.85691 V 408.05232 h 13.36201 v 104.91663 c 0,8.90803 4.45401,13.36203 13.36202,13.36203 8.90803,0 13.36203,-4.454 13.36203,-13.36203 V 409.04211 h 35.63206 L 161.58835,275.42187 h 12.86713 l 22.468,75.22325 c 1.7816,6.43357 5.54276,9.60087 11.1845,9.60087 10.06608,-1.79442 14.99662,-8.79517 11.18452,-17.1232 l -24.64552,-82.1517 c -1.78161,-5.74072 -5.83969,-11.28349 -12.27326,-16.62829 -7.81927,-6.43356 -16.43034,-9.60087 -25.53633,-10.09575 z" id="path890" opacity="0.8" fill="none" stroke="#ffffff" vector-effect="none" stroke-width="64"/>
 <path d="m 158.81696,200.09966 c -1.29053,-17.4403 -13.55626,-29.08938 -29.39645,-29.29748 -17.10829,1.32066 -28.69176,13.84123 -28.90156,29.29748 1.31372,16.76817 13.63096,28.5944 28.90156,28.80257 16.98641,-1.20649 29.17732,-13.24491 29.39645,-28.80257 z" id="path892" opacity="0.8" fill="none" stroke="#ffffff" vector-effect="none" stroke-width="64"/>
 <path d="m 408.6373,199.50578 c -1.22484,-17.07555 -13.25293,-28.69008 -28.80258,-28.90156 -17.18881,1.31133 -28.60062,13.35417 -28.80258,28.90156 1.27437,16.71569 13.57919,28.68712 28.80258,28.90157 16.76819,-1.31372 28.59441,-13.63096 28.80258,-28.90157 z" id="path894" opacity="0.8" fill="none" stroke="#ffffff" vector-effect="none" stroke-width="64"/>
 <path d="m 341.23332,234.24705 c -10.2937,0 -19.20173,3.66218 -26.52609,10.88756 -7.32437,7.32437 -10.88757,16.33137 -10.88757,27.02099 v 89.08015 c 0,8.51209 3.95911,12.86714 11.77837,12.86714 7.52233,0 11.28348,-4.25607 11.28348,-12.86714 v -86.1108 h 13.85692 v 235.5675 c 0,10.68962 5.34481,16.03443 16.03442,16.03443 10.68962,0 16.03444,-5.34481 16.03444,-16.03443 V 374.10289 h 13.85691 v 136.58956 c 0,10.68962 5.34481,16.03444 16.03443,16.03444 11.08552,0 16.62829,-5.34482 16.62829,-16.03444 v -235.5675 h 13.36203 v 87.10059 c 0,8.90801 3.76115,13.36202 11.28348,13.36202 7.52233,0 11.28348,-4.454 11.28348,-13.36202 v -88.09037 c 0,-10.29371 -3.46422,-19.30071 -10.39268,-27.02099 -6.92845,-7.72028 -15.83647,-11.48144 -27.21894,-12.17428 z" id="path896" opacity="0.8" fill="none" stroke="#ffffff" vector-effect="none" stroke-width="64"/>
 <g id="g904" transform="matrix(0.26477913,0,0,0.26477913,411.8336,53.273115)" opacity="0.8" fill="none" stroke="#ffffff" vector-effect="none" stroke-width="241.7">
  <path d="M 243,0 C 108.8,0 0,108.8 0,243 0,377.2 108.8,486 243,486 377.2,486 486,377.2 486,243 486,108.8 377.2,0 243,0 Z m 69.8,338.8 c -10.6,12.9 -24.4,21.6 -40.5,26 -7,1.9 -10.2,5.6 -9.8,12.9 0.3,7.2 0,14.3 -0.1,21.5 0,6.4 -3.3,9.8 -9.6,10 -4.1,0.1 -8.2,0.2 -12.3,0.2 -3.6,0 -7.2,0 -10.8,-0.1 -6.8,-0.1 -10,-4 -10,-10.6 -0.1,-5.2 -0.1,-10.5 -0.1,-15.7 -0.1,-11.6 -0.5,-12 -11.6,-13.8 -14.2,-2.3 -28.2,-5.5 -41.2,-11.8 -10.2,-5 -11.3,-7.5 -8.4,-18.3 2.2,-8 4.4,-16 6.9,-23.9 1.8,-5.8 3.5,-8.4 6.6,-8.4 1.8,0 4.1,0.9 7.2,2.5 14.4,7.5 29.7,11.7 45.8,13.7 2.7,0.3 5.4,0.5 8.1,0.5 7.5,0 14.8,-1.4 21.9,-4.5 17.9,-7.8 20.7,-28.5 5.6,-40.9 -5.1,-4.2 -11,-7.3 -17.1,-10 -15.7,-6.9 -32,-12.1 -46.8,-21 -24,-14.4 -39.2,-34.1 -37.4,-63.3 2,-33 20.7,-53.6 51,-64.6 12.5,-4.5 12.6,-4.4 12.6,-17.4 0,-4.4 -0.1,-8.8 0.1,-13.3 0.3,-9.8 1.9,-11.5 11.7,-11.8 1.1,0 2.3,0 3.4,0 1.9,0 3.8,0 5.7,0 0.8,0 1.6,0 2.3,0 18.6,0 18.6,0.8 18.7,20.9 0.1,14.8 0.1,14.8 14.8,17.1 11.3,1.8 22,5.1 32.4,9.7 5.7,2.5 7.9,6.5 6.1,12.6 -2.6,9 -5.1,18.1 -7.9,27 -1.8,5.4 -3.5,7.9 -6.7,7.9 -1.8,0 -4,-0.7 -6.8,-2.1 -14.4,-7 -29.5,-10.4 -45.3,-10.4 -2,0 -4.1,0.1 -6.1,0.2 -4.7,0.3 -9.3,0.9 -13.7,2.8 -15.6,6.8 -18.1,24 -4.8,34.6 6.7,5.4 14.4,9.2 22.3,12.5 13.8,5.7 27.6,11.2 40.7,18.4 41.2,23 52.4,75.3 23.1,110.9 z" id="path898" vector-effect="none" stroke-width="241.7"/>
 </g>
 <path id="path856" d="M 270.36512,525.7371 V 168.4267 h -28.3077 v 357.3104 z" fill="#000000" stroke-width="0.99"/>
 <path id="path858" d="m 99.727128,233.75215 c -8.90802,0 -16.82626,3.16729 -24.05164,9.60086 -5.34481,4.9489 -8.90802,10.49168 -10.68962,16.6283 l -24.64551,82.1517 c -3.34704,9.8253 3.68698,16.97893 11.18451,17.1232 5.74072,0 9.50188,-3.1673 11.28349,-9.60087 l 22.46799,-75.22325 h 12.27326 l -36.62184,133.62023 h 35.63207 v 103.92684 c 0,9.30393 4.454012,13.85691 13.362022,13.85691 8.90801,0 13.36203,-4.65196 13.36203,-13.85691 V 408.05232 h 13.36201 v 104.91663 c 0,8.90803 4.45401,13.36203 13.36202,13.36203 8.90803,0 13.36203,-4.454 13.36203,-13.36203 V 409.04211 h 35.63206 L 161.58835,275.42187 h 12.86713 l 22.468,75.22325 c 1.7816,6.43357 5.54276,9.60087 11.1845,9.60087 10.06608,-1.79442 14.99662,-8.79517 11.18452,-17.1232 l -24.64552,-82.1517 c -1.78161,-5.74072 -5.83969,-11.28349 -12.27326,-16.62829 -7.81927,-6.43356 -16.43034,-9.60087 -25.53633,-10.09575 z" fill="#000000" stroke-width="0.99"/>
 <path id="path860" d="m 158.81696,200.09966 c -1.29053,-17.4403 -13.55626,-29.08938 -29.39645,-29.29748 -17.10829,1.32066 -28.69176,13.84123 -28.90156,29.29748 1.31372,16.76817 13.63096,28.5944 28.90156,28.80257 16.98641,-1.20649 29.17732,-13.24491 29.39645,-28.80257 z" fill="#000000" stroke-width="0.99"/>
 <path id="path862" d="m 408.6373,199.50578 c -1.22484,-17.07555 -13.25293,-28.69008 -28.80258,-28.90156 -17.18881,1.31133 -28.60062,13.35417 -28.80258,28.90156 1.27437,16.71569 13.57919,28.68712 28.80258,28.90157 16.76819,-1.31372 28.59441,-13.63096 28.80258,-28.90157 z" fill="#000000" stroke-width="0.99"/>
 <path id="path864" d="m 341.23332,234.24705 c -10.2937,0 -19.20173,3.66218 -26.52609,10.88756 -7.32437,7.32437 -10.88757,16.33137 -10.88757,27.02099 v 89.08015 c 0,8.51209 3.95911,12.86714 11.77837,12.86714 7.52233,0 11.28348,-4.25607 11.28348,-12.86714 v -86.1108 h 13.85692 v 235.5675 c 0,10.68962 5.34481,16.03443 16.03442,16.03443 10.68962,0 16.03444,-5.34481 16.03444,-16.03443 V 374.10289 h 13.85691 v 136.58956 c 0,10.68962 5.34481,16.03444 16.03443,16.03444 11.08552,0 16.62829,-5.34482 16.62829,-16.03444 v -235.5675 h 13.36203 v 87.10059 c 0,8.90801 3.76115,13.36202 11.28348,13.36202 7.52233,0 11.28348,-4.454 11.28348,-13.36202 v -88.09037 c 0,-10.29371 -3.46422,-19.30071 -10.39268,-27.02099 -6.92845,-7.72028 -15.83647,-11.48144 -27.21894,-12.17428 z" fill="#000000" stroke-width="0.99"/>
 <g transform="matrix(0.26477913,0,0,0.26477913,411.8336,53.273115)" id="g872" opacity="1" fill="#000000" stroke="none" vector-effect="none">
  <path id="path866" d="M 243,0 C 108.8,0 0,108.8 0,243 0,377.2 108.8,486 243,486 377.2,486 486,377.2 486,243 486,108.8 377.2,0 243,0 Z m 69.8,338.8 c -10.6,12.9 -24.4,21.6 -40.5,26 -7,1.9 -10.2,5.6 -9.8,12.9 0.3,7.2 0,14.3 -0.1,21.5 0,6.4 -3.3,9.8 -9.6,10 -4.1,0.1 -8.2,0.2 -12.3,0.2 -3.6,0 -7.2,0 -10.8,-0.1 -6.8,-0.1 -10,-4 -10,-10.6 -0.1,-5.2 -0.1,-10.5 -0.1,-15.7 -0.1,-11.6 -0.5,-12 -11.6,-13.8 -14.2,-2.3 -28.2,-5.5 -41.2,-11.8 -10.2,-5 -11.3,-7.5 -8.4,-18.3 2.2,-8 4.4,-16 6.9,-23.9 1.8,-5.8 3.5,-8.4 6.6,-8.4 1.8,0 4.1,0.9 7.2,2.5 14.4,7.5 29.7,11.7 45.8,13.7 2.7,0.3 5.4,0.5 8.1,0.5 7.5,0 14.8,-1.4 21.9,-4.5 17.9,-7.8 20.7,-28.5 5.6,-40.9 -5.1,-4.2 -11,-7.3 -17.1,-10 -15.7,-6.9 -32,-12.1 -46.8,-21 -24,-14.4 -39.2,-34.1 -37.4,-63.3 2,-33 20.7,-53.6 51,-64.6 12.5,-4.5 12.6,-4.4 12.6,-17.4 0,-4.4 -0.1,-8.8 0.1,-13.3 0.3,-9.8 1.9,-11.5 11.7,-11.8 1.1,0 2.3,0 3.4,0 1.9,0 3.8,0 5.7,0 0.8,0 1.6,0 2.3,0 18.6,0 18.6,0.8 18.7,20.9 0.1,14.8 0.1,14.8 14.8,17.1 11.3,1.8 22,5.1 32.4,9.7 5.7,2.5 7.9,6.5 6.1,12.6 -2.6,9 -5.1,18.1 -7.9,27 -1.8,5.4 -3.5,7.9 -6.7,7.9 -1.8,0 -4,-0.7 -6.8,-2.1 -14.4,-7 -29.5,-10.4 -45.3,-10.4 -2,0 -4.1,0.1 -6.1,0.2 -4.7,0.3 -9.3,0.9 -13.7,2.8 -15.6,6.8 -18.1,24 -4.8,34.6 6.7,5.4 14.4,9.2 22.3,12.5 13.8,5.7 27.6,11.2 40.7,18.4 41.2,23 52.4,75.3 23.1,110.9 z" vector-effect="none" stroke-width="3.74"/>
 </g>
</svg>
