<svg height="580" width="580" xmlns="http://www.w3.org/2000/svg"><path d="m66.275 1.768c-41.335 0-64.571 21.371-64.571 65.036v450.123c0 40.844 20.895 62.229 62.192 62.229h452.024c41.307 0 62.229-20.315 62.229-62.229v-450.123c0-42.601-20.922-65.036-63.521-65.036-.004 0-448.495-.143-448.353 0z" fill="none"/><path d="m-24.382324-58.667969 3.239746-7.960205h3.320312l3.239746 7.960205zm10.560303-7.960205h5.3991694v-2.960205h-21.4001464v2.960205h5.360107l-3.239746 7.960205h-7.919922v2.958985h6.719971l-3.719482 9.281005h3.640136l3.759766-9.281005h12.159424l3.7597655 9.281005h3.6804199l-3.7597656-9.281005h6.7602539v-2.958985h-7.9602047z" fill="#050" transform="matrix(14.685839 0 0 14.685839 569.76584 1146.0639)"/></svg>