<svg height="580" width="580" xmlns="http://www.w3.org/2000/svg"><g fill-rule="evenodd"><path d="m107 155.9c-59.3 50.1-69.2 144.1-29 209.1 40 73 125 113 206 113 74-1 148-29 196-86 38-44 58-105 46-162-8-65-74-114-138-109-34 3-66 16-93 35-25-23-60-36-94-35-34 .4-68 13.5-94 34.9zm128 54c-30.8 38-55 81-73.9 126-11.3 29 28 58 51.7 36.7 18.2-19.8 24.4-48 39.9-70 12.6-17.8 26.5-49 43-55 28.4 32 51 69 66 109 15.5 26.6 61.9 14 61-16.9-3.1-27-18.4-51-31.4-75-12.3-21.7-27.3-42.7-44.3-61.7 23.9-13.4 54-21.7 80-7.2 20 9.7 33.7 30.4 34 52.6 7.5 59.8-34.8 116-86 142-69 33.6-161 23.6-217-31.4-34-32-48-87-24-129 13-25 40-42 68-42 12.8.1 52 6.2 33 21.9z" fill="#ac39ac" opacity=".8" stroke="#fff" stroke-linejoin="round" stroke-width="64"/><path d="m107 155.9c-59.3 50.1-69.2 144.1-29 209.1 40 73 125 113 206 113 74-1 148-29 196-86 38-44 58-105 46-162-8-65-74-114-138-109-34 3-66 16-93 35-25-23-60-36-94-35-34 .4-68 13.5-94 34.9zm128 54c-30.8 38-55 81-73.9 126-11.3 29 28 58 51.7 36.7 18.2-19.8 24.4-48 39.9-70 12.6-17.8 26.5-49 43-55 28.4 32 51 69 66 109 15.5 26.6 61.9 14 61-16.9-3.1-27-18.4-51-31.4-75-12.3-21.7-27.3-42.7-44.3-61.7 23.9-13.4 54-21.7 80-7.2 20 9.7 33.7 30.4 34 52.6 7.5 59.8-34.8 116-86 142-69 33.6-161 23.6-217-31.4-34-32-48-87-24-129 13-25 40-42 68-42 12.8.1 52 6.2 33 21.9z" fill="#652506" stroke-linecap="round" stroke-width="73"/></g></svg>