<svg height="580" width="580" xmlns="http://www.w3.org/2000/svg"><path d="m66.275 1.768c-41.335 0-64.571 21.371-64.571 65.036v450.123c0 40.844 20.895 62.229 62.192 62.229h452.024c41.307 0 62.229-20.315 62.229-62.229v-450.123c0-42.601-20.922-65.036-63.521-65.036-.004 0-448.495-.143-448.353 0z" fill="none"/><g fill="#734a08" stroke="#734a08" stroke-linecap="round" stroke-linejoin="round" stroke-width="6"><path d="m49.302816 232.71463.353768-96.69793h32.160709v32.16103h32.160707v-32.16103h32.16071v32.16103h32.16071v-32.16103h32.16071v96.48342h-32.16071v64.31916h32.16071v-32.15813h32.16071v32.15813h32.16071v-32.15813h32.16071v32.15813 32.16103 32.16104h3.83929v12.16103h-68.16071v84.32206h-160.803547v-225.12432l-32.516085.28944.0016-.0749z"/><path d="m532.24315 232.71463-.35056-96.69793h-32.11665v32.16103h-32.11632v-32.16103h-32.11633v32.16103h-32.11633v-32.16103h-32.11633v96.48342h32.11633v64.32206h-32.11633v-32.16103h-32.11633v32.16103h-32.11632v-32.16103h-32.11633v32.16103 32.15813 32.16104h16.11633v12.16103h48.11632v84.32206h160.58164v-225.12432l32.47139.28944-.004-.0749z"/></g></svg>