<svg height="580" width="580" xmlns="http://www.w3.org/2000/svg"><path d="m66.275 1.768c-41.335 0-64.571 21.371-64.571 65.036v450.123c0 40.844 20.894 62.229 62.192 62.229h452.024c41.307 0 62.229-20.316 62.229-62.229v-450.123c0-42.601-20.922-65.036-63.522-65.036-.003 0-448.494-.143-448.352 0z" fill="none"/><g fill="#734a08"><path d="m468.232 77.93h-.251c.287-.248.445-.498.445-.75 0-5.937-81.067-10.75-181.07-10.75-100.002 0-181.07 4.813-181.07 10.75 0 .252.158.502.446.75h-.446l56.512 430.928h.255c-.5.27-.765.544-.765.821 0 4.102 55.996 7.425 125.07 7.425 69.075 0 125.07-3.323 125.07-7.425 0-.277-.266-.552-.765-.821zm-92.85286 399.42255c-2.895 2.679-174.60069 1.42359-177.49569-1.25541l-53.68219-340.25285c95.07744 65.90537 157.60824-8.95098 282.15977-2.51082z"/><path d="m129.30736 119.26407 310.08658 2.51082-50.21645 371.60173-212.1645 2.51083z" fill-rule="evenodd" opacity=".1"/></g></svg>