<svg height="580" width="580" xmlns="http://www.w3.org/2000/svg"><path d="m66.275 1.768c-41.335 0-64.571 21.371-64.571 65.036v450.123c0 40.844 20.894 62.229 62.192 62.229h452.024c41.307 0 62.229-20.316 62.229-62.229v-450.123c0-42.601-20.922-65.036-63.522-65.036-.003 0-448.494-.143-448.352 0z" fill="none"/><g fill="#734a08"><path d="m203.725 338.602c37.643-17.466 64.864-67.996 64.864-127.642 0-74.115-61.834-155.247-93.849-155.247-32.014 0-93.85 81.132-93.85 155.247 0 59.646 27.223 110.176 64.865 127.642l-7.792 176.545h73.553z"/><path d="m430.231 368.602c37.642-17.466 51.389-39.928 51.389-99.574l-9.781-202.814c0-3.875-3.142-7.017-7.018-7.017h-4.607c-3.873 0-7.016 3.141-7.016 7.017l3.26 202.814h-20.259l-5.132-204.789c0-3.875-3.142-7.017-7.018-7.017h-5.995c-3.874 0-7.016 3.142-7.016 7.017l2.775 204.789h-25.137l2.775-204.789c0-3.875-3.142-7.017-7.017-7.017h-5.996c-3.875 0-7.016 3.142-7.016 7.017l-5.132 204.789h-19.835l3.26-202.789c0-3.875-3.142-7.017-7.017-7.017h-4.606c-3.875 0-7.018 3.142-7.018 7.017l-10.174 202.789c0 59.646 13.715 82.108 51.356 99.574l-7.791 146.545h73.554z"/></g></svg>