<svg enable-background="new 0 0 256 256" viewBox="0 0 256 256" xmlns="http://www.w3.org/2000/svg"><path d="m125.3 171.5c-3.9.7-7.8 1.1-11.9 1.1-32.2-.5-58-27-57.5-59.2s27-58 59.2-57.5 58 27 57.5 59.2c0 3.6-.4 7.1-1.2 10.5l21.6 21.6c1.5-3.5 2.7-7.1 3.7-10.8l21.7-5.4.1-32.9-21.5-5.5c-2-7.5-4.9-14.5-8.6-21l11.5-19.1-23.2-23.3-19.2 11.4c-6.5-3.8-13.6-6.7-21-8.8l-5.3-21.8-33-.1-5.5 21.6c-7.5 2-14.6 4.9-21.1 8.6l-19.1-11.5-23.3 23.2 11.4 19.2c-3.8 6.5-6.7 13.6-8.8 21l-21.7 5.3-.1 33 21.6 5.5c1.9 7.5 4.9 14.5 8.6 21.1l-11.4 19.1 23.2 23.4 19.2-11.4c6.5 3.8 13.5 6.8 21 8.8l5.3 21.7 32.9.1 5.5-21.7c3.8-1 7.5-2.2 11.1-3.7z"/><path d="m239.3 207-82.5-82.5c3.5-14.4-.3-30.3-11.6-41.6-13.2-13.2-32.7-16.3-48.9-9.2l23.4 23.4c6.3 6.3 6.3 16.4 0 22.7s-16.4 6.3-22.7 0l-23.4-23.4c-7.1 16.1-4 35.7 9.2 48.9 11.3 11.3 27.2 15.1 41.6 11.6l82.5 82.5c4.5 4.5 10.3 6.7 16.2 6.7s11.7-2.2 16.2-6.7c8.9-8.9 8.9-23.4 0-32.4zm-8.7 22.9c-3.9 3.9-10.3 3.9-14.2 0s-3.9-10.3 0-14.2 10.3-3.9 14.2 0c3.9 4 3.9 10.3 0 14.2z"/></svg>