<svg height="580" width="580" xmlns="http://www.w3.org/2000/svg"><path d="m541.03 290.07c6.17 162.51-171.36 293.12-324.64 239.4-156.96-42.16-229.551-250.29-132.759-380.89 86.669-137.55 306.929-145.3501 403.109-14.27 34.98 43.85 54.43 99.68 54.29 155.76z" fill="none" stroke="#fff" stroke-linecap="round" stroke-linejoin="round" stroke-width="58.69"/><path d="m541.03 290.07c6.17 162.51-171.36 293.12-324.64 239.4-156.96-42.16-229.551-250.29-132.759-380.89 86.669-137.55 306.929-145.3501 403.109-14.27 34.98 43.85 54.43 99.68 54.29 155.76z" fill="#fff" stroke="#000" stroke-width="21.831"/><path d="m290.26 102.7c-27.67.36-55.41-.71-83.03.7-28.45 3.04-53.27 29.43-50.13 58.7.17 65.25-.35 130.51.26 195.74 2.51 23.42 22.2 43.68 45.36 47.43-22.86 31.76-45.73 63.51-68.59 95.27h39.59c16.36-22.2 32.7-44.4 49.05-66.6h134.51c16.35 22.2 32.69 44.4 49.04 66.6h39.6c-22.87-31.76-45.74-63.51-68.6-95.27 27.55-4.27 48.75-31.73 45.65-59.5-.19-64.97.39-129.96-.29-194.91-3.39-30.96-35.77-51.048-65.33-48.12-22.37 0-44.72 0-67.09 0zm-29.16 11.41c20.5.45 41.17-.9 61.57.71 9.29 4.43 5.08 15.69 6.03 23.82-1.78 12.41-16.12 8.25-24.93 8.98-15.48-.41-31.13.88-46.5-.72-9.17-4.55-4.97-15.77-5.93-23.91 0-5.06 4.93-8.96 9.76-8.88zm-42.49 44.13c48.76.1 97.53-.19 146.29.15 16.72.16 28.53 16.56 26.13 32.47-.75 13.94 1.91 28.38-2.26 41.84-6.79 16.1-25.6 16.69-40.54 16.01-44.24-.1-88.49.16-132.73-.12-16.7-.21-29.25-16.21-26.63-32.41.91-14.42-2.36-29.57 2.98-43.28 4.82-9.98 16.08-14.92 26.76-14.66zm-3.24 169.99c18.86-1.48 34.13 22.12 21.67 37.67-12.24 18.31-45.53 11.55-47.63-11.04-1.91-14.6 11.84-27.09 25.96-26.63zm148.62 0c18.86-1.47 34.08 22.13 21.64 37.67-12.22 18.31-45.51 11.55-47.6-11.04-1.92-14.61 11.85-27.1 25.96-26.63z"/></svg>