<svg height="580" width="580" xmlns="http://www.w3.org/2000/svg" xmlns:xlink="http://www.w3.org/1999/xlink"><path d="m66.275 1.768c-41.335 0-64.571 21.371-64.571 65.036v450.123c0 40.844 20.895 62.229 62.192 62.229h452.024c41.307 0 62.229-20.315 62.229-62.229v-450.123c0-42.601-20.922-65.036-63.521-65.036-.004 0-448.495-.143-448.353 0z" fill="none"/><path id="a" d="m264.50523 235.49926c-.16658.78886-42.10316-33.79044-85.91597-79.79102-9.98712-10.48582-67.67963-60.980315-14.46661-91.66394 54.45289-31.398539 69.60929 44.6705 73.90403 61.46637 15.13669 59.19661 26.64513 109.19973 26.47855 109.98859z" fill="#734a08" stroke="#734a08" stroke-linecap="round" stroke-linejoin="round" stroke-width="13.05851"/><use id="b" height="580" transform="matrix(.5 -.8660254 .8660254 .5 -99.608513 395.17405)" width="580" xlink:href="#a"/><use id="c" height="580" transform="matrix(.5 -.8660254 .8660254 .5 -100.02947 397.18544)" width="580" xlink:href="#b"/><use id="d" height="580" transform="matrix(.5 -.8660254 .8660254 .5 -100.38597 396.46523)" width="580" xlink:href="#c"/><use height="580" transform="matrix(.5 -.8660254 .8660254 .5 -102.40499 396.28914)" width="580" xlink:href="#d"/><path d="m323.1887 233.94211c-.76647.25017 8.2118-53.35763 26.14307-114.30092 4.08742-13.89201 18.9707-89.10244 72.15-58.360413 54.41838 31.458315-3.88114 82.618663-16.27943 94.735943-43.69743 42.70707-81.24718 77.67522-82.01364 77.92539z" fill="#734a08" stroke="#734a08" stroke-linecap="round" stroke-linejoin="round" stroke-width="13.05851"/></svg>