<svg height="580" width="580" xmlns="http://www.w3.org/2000/svg"><path d="m66.275 1.768c-41.335 0-64.571 21.371-64.571 65.036v450.123c0 40.844 20.895 62.229 62.192 62.229h452.024c41.307 0 62.229-20.315 62.229-62.229v-450.123c0-42.601-20.922-65.036-63.521-65.036-.004 0-448.495-.143-448.353 0z" fill="none"/><g stroke="#f00"><path d="m505.71429 305.71429a288.57144 288.57144 0 1 1 -577.142879 0 288.57144 288.57144 0 1 1 577.142879 0z" fill="none" stroke-width="25.137615" transform="matrix(.86047263 0 0 .86047263 100.67386 22.912007)"/><path d="m-468.65591-326.88843h362.27322v81.835243h-362.27322z" fill="#f00" stroke-linejoin="round" stroke-width="20" transform="scale(-1)"/><path d="m-467.10742 246.60173h362.27322v81.835243h-362.27322z" fill="#f00" stroke-linejoin="round" stroke-width="20" transform="rotate(-90)"/></g></svg>