<svg height="580" width="580" xmlns="http://www.w3.org/2000/svg"><path d="m217.48631 36.204928c-60.07213 0-108.77049 48.698377-108.77049 108.770472 0 12.89039 2.68302 24.78263 6.79816 36.25683h203.94464c4.11599-11.4742 6.79825-23.36644 6.79825-36.25683 0-60.072095-48.69843-108.770472-108.77056-108.770472zm145.02723 0c-14.64256 0-28.03844 3.81785-40.78886 9.064206 24.94367 26.04728 40.78886 60.794006 40.78886 99.706266 0 12.57314-2.49792 24.61876-5.66494 36.25683h107.63739c4.11591-11.4742 6.79818-23.36644 6.79818-36.25683 0-60.072095-48.6984-108.770472-108.77063-108.770472zm-208.47669 181.284142 135.96303 326.31145 135.96315-326.31145z" fill="none" opacity=".8" stroke="#fff" stroke-linejoin="round" stroke-width="68.1"/><path d="m217.48631 36.204928c-60.07213 0-108.77049 48.698377-108.77049 108.770472 0 12.89039 2.68302 24.78263 6.79816 36.25683h203.94464c4.11599-11.4742 6.79825-23.36644 6.79825-36.25683 0-60.072095-48.69843-108.770472-108.77056-108.770472zm145.02723 0c-14.64256 0-28.03844 3.81785-40.78886 9.064206 24.94367 26.04728 40.78886 60.794006 40.78886 99.706266 0 12.57314-2.49792 24.61876-5.66494 36.25683h107.63739c4.11591-11.4742 6.79818-23.36644 6.79818-36.25683 0-60.072095-48.6984-108.770472-108.77063-108.770472zm-208.47669 181.284142 135.96303 326.31145 135.96315-326.31145z" fill="#734a08"/></svg>