<?xml version="1.0" encoding="UTF-8" standalone="no"?>
<!DOCTYPE svg PUBLIC "-//W3C//DTD SVG 1.1//EN" "http://www.w3.org/Graphics/SVG/1.1/DTD/svg11.dtd">
<svg width="100%" height="100%" viewBox="0 0 1000 1000" version="1.1" xmlns="http://www.w3.org/2000/svg" xmlns:xlink="http://www.w3.org/1999/xlink" xml:space="preserve" xmlns:serif="http://www.serif.com/" style="fill-rule:evenodd;clip-rule:evenodd;stroke-linejoin:round;stroke-miterlimit:2;">
    <g transform="matrix(0.944484,0,0,0.898309,-9.03811,44.3063)">
        <g transform="matrix(1.82548,0,0,1.91931,9.56937,-49.3219)">
            <circle cx="290" cy="290" r="290" style="fill:rgb(255,0,0);"/>
        </g>
        <g transform="matrix(1.05878,0,0,1.1132,9.56937,-49.3219)">
            <path d="M312.93,732.414L312.9,732.414L312.9,768.668C312.9,789.385 297.163,806.649 276.18,806.649C255.197,806.649 239.459,789.385 239.459,768.668L239.459,511.437L174.761,511.437C159.024,511.437 150.281,490.721 162.521,478.636L475.52,202.415C489.509,190.33 510.492,190.33 524.48,202.415L837.479,478.636C849.719,490.721 840.976,511.437 825.239,511.437L760.541,511.437L760.541,768.668C760.541,789.385 744.803,806.649 723.82,806.649C702.837,806.649 687.1,789.385 687.1,768.668L687.1,732.414L687.06,732.414L687.06,658.18L687.1,658.18L687.1,585.672L687.06,585.672L687.06,511.437L687.1,511.437L687.1,444.108L678.357,437.203L321.643,437.203L312.9,444.108L312.9,511.437L312.93,511.437L312.93,585.672L312.9,585.672L312.9,658.18L312.93,658.18L312.93,732.414ZM596.173,364.695L403.827,364.695L500,278.376L596.173,364.695Z" style="fill:white;fill-rule:nonzero;stroke:white;stroke-width:23px;"/>
        </g>
        <g transform="matrix(1.05878,0,0,1.1132,9.56937,-49.3219)">
            <path d="M596.173,364.695L403.827,364.695L500,278.376L596.173,364.695Z" style="fill:rgb(255,0,0);fill-rule:nonzero;"/>
        </g>
    </g>
</svg>
