<?xml version="1.0" encoding="UTF-8" standalone="no"?>
<!DOCTYPE svg PUBLIC "-//W3C//DTD SVG 1.1//EN" "http://www.w3.org/Graphics/SVG/1.1/DTD/svg11.dtd">
<svg width="100%" height="100%" viewBox="0 0 1000 1000" version="1.1" xmlns="http://www.w3.org/2000/svg" xmlns:xlink="http://www.w3.org/1999/xlink" xml:space="preserve" xmlns:serif="http://www.serif.com/" style="fill-rule:evenodd;clip-rule:evenodd;stroke-linejoin:round;stroke-miterlimit:2;">
    <g transform="matrix(1.72414,0,0,1.72414,0,0)">
        <circle cx="290" cy="290" r="290" style="fill:rgb(255,0,255);"/>
    </g>
    <g transform="matrix(12.371,0,0,12.371,121.138,151.699)">
        <path id="bicycle" d="M33.688,4.594C33.751,3.318 34.198,2.233 35.027,1.34C35.921,0.51 37.005,0.064 38.281,0C39.557,0.064 40.642,0.51 41.535,1.34C42.365,2.233 42.811,3.318 42.875,4.594C42.811,5.87 42.365,6.954 41.535,7.848C40.642,8.677 39.557,9.124 38.281,9.188C37.005,9.124 35.921,8.677 35.027,7.848C34.198,6.954 33.751,5.87 33.688,4.594ZM45.938,15.217C46.831,15.281 47.564,15.6 48.139,16.174C48.713,16.748 49,17.45 49,18.279C49,19.173 48.713,19.906 48.139,20.48C47.564,21.055 46.831,21.342 45.938,21.342L39.813,21.342C39.111,21.406 38.473,21.182 37.898,20.672L33.975,17.609L28.232,22.299L32.348,24.979C33.241,25.617 33.688,26.478 33.688,27.563L33.688,39.813C33.688,40.706 33.4,41.439 32.826,42.014C32.252,42.588 31.518,42.875 30.625,42.875C29.732,42.875 28.998,42.588 28.424,42.014C27.85,41.439 27.562,40.706 27.562,39.813L27.562,29.189L21.82,25.553C20.225,24.404 19.396,22.969 19.332,21.246C19.204,19.46 19.874,17.96 21.342,16.748L29.285,10.623C30.178,9.985 31.135,9.666 32.156,9.666C33.177,9.666 34.102,9.985 34.932,10.623L40.865,15.217L45.938,15.217ZM24.5,36.75C24.436,40.195 23.256,43.098 20.959,45.459C18.598,47.756 15.695,48.936 12.25,49C8.805,48.936 5.902,47.756 3.541,45.459C1.244,43.098 0.064,40.195 0,36.75C0.064,33.305 1.244,30.402 3.541,28.041C5.902,25.744 8.805,24.564 12.25,24.5C15.695,24.564 18.598,25.744 20.959,28.041C23.256,30.402 24.436,33.305 24.5,36.75ZM12.25,29.859C10.272,29.923 8.645,30.593 7.369,31.869C6.093,33.145 5.423,34.772 5.359,36.75C5.423,38.728 6.093,40.355 7.369,41.631C8.645,42.907 10.272,43.577 12.25,43.641C14.228,43.577 15.855,42.907 17.131,41.631C18.407,40.355 19.077,38.728 19.141,36.75C19.077,34.772 18.407,33.145 17.131,31.869C15.855,30.593 14.228,29.923 12.25,29.859ZM61.25,36.75C61.186,40.195 60.006,43.098 57.709,45.459C55.348,47.756 52.445,48.936 49,49C45.555,48.936 42.652,47.756 40.291,45.459C37.994,43.098 36.814,40.195 36.75,36.75C36.814,33.305 37.994,30.402 40.291,28.041C42.652,25.744 45.555,24.564 49,24.5C52.445,24.564 55.348,25.744 57.709,28.041C60.006,30.402 61.186,33.305 61.25,36.75ZM49,29.859C47.022,29.923 45.395,30.593 44.119,31.869C42.843,33.145 42.173,34.772 42.109,36.75C42.173,38.728 42.843,40.355 44.119,41.631C45.395,42.907 47.022,43.577 49,43.641C50.978,43.577 52.605,42.907 53.881,41.631C55.157,40.355 55.827,38.728 55.891,36.75C55.827,34.772 55.157,33.145 53.881,31.869C52.605,30.593 50.978,29.923 49,29.859Z" style="fill:white;fill-rule:nonzero;"/>
    </g>
</svg>
