<?xml version="1.0" encoding="UTF-8" standalone="no"?>
<!DOCTYPE svg PUBLIC "-//W3C//DTD SVG 1.1//EN" "http://www.w3.org/Graphics/SVG/1.1/DTD/svg11.dtd">
<svg width="100%" height="100%" viewBox="0 0 1000 1000" version="1.1" xmlns="http://www.w3.org/2000/svg" xmlns:xlink="http://www.w3.org/1999/xlink" xml:space="preserve" xmlns:serif="http://www.serif.com/" style="fill-rule:evenodd;clip-rule:evenodd;stroke-linejoin:round;stroke-miterlimit:2;">
    <g transform="matrix(0.944484,0,0,0.898309,-9.03811,44.3063)">
        <g transform="matrix(1.82548,0,0,1.91931,9.56937,-49.3219)">
            <circle cx="290" cy="290" r="290" style="fill:rgb(255,255,0);"/>
            <path d="M290,0C450.055,0 580,129.945 580,290C580,450.055 450.055,580 290,580C129.945,580 0,450.055 0,290C0,129.945 129.945,0 290,0ZM290,29C434.05,29 551,145.95 551,290C551,434.05 434.05,551 290,551C145.95,551 29,434.05 29,290C29,145.95 145.95,29 290,29Z"/>
        </g>
        <g id="fastfood" transform="matrix(16.4471,0,0,16.8225,286.325,-8.71505)">
            <path d="M0.096,32.73L30.721,32.73L30.721,36.75L0.096,36.75L0.096,32.73ZM30.721,28.615L0,28.615C0,25.489 1.053,22.873 3.158,20.768C5.264,18.662 7.816,17.354 10.814,16.844C13.813,16.333 16.828,16.333 19.858,16.844C22.889,17.354 25.457,18.662 27.562,20.768C29.668,22.873 30.721,25.489 30.721,28.615ZM0,42.875L0,40.865L30.721,40.865L30.721,42.875C30.721,43.449 30.513,43.928 30.099,44.311C29.684,44.693 29.189,44.885 28.615,44.885L2.105,44.885C1.531,44.885 1.037,44.693 0.622,44.311C0.207,43.928 0,43.449 0,42.875Z" style="fill-rule:nonzero;"/>
        </g>
    </g>
</svg>
