<?xml version="1.0" encoding="UTF-8" standalone="no"?>
<!DOCTYPE svg PUBLIC "-//W3C//DTD SVG 1.1//EN" "http://www.w3.org/Graphics/SVG/1.1/DTD/svg11.dtd">
<svg width="100%" height="100%" viewBox="0 0 1000 1000" version="1.1" xmlns="http://www.w3.org/2000/svg" xmlns:xlink="http://www.w3.org/1999/xlink" xml:space="preserve" xmlns:serif="http://www.serif.com/" style="fill-rule:evenodd;clip-rule:evenodd;stroke-linejoin:round;stroke-miterlimit:2;">
    <g transform="matrix(0.944484,0,0,0.898309,-9.03811,44.3063)">
        <g transform="matrix(1.82548,0,0,1.91931,9.56937,-49.3219)">
            <circle cx="290" cy="290" r="290"/>
        </g>
        <g id="ferry" transform="matrix(12.2577,0,0,12.9204,201.105,167.154)">
            <path d="M18.375,2.967C18.375,2.074 18.662,1.34 19.236,0.766C19.811,0.191 20.544,-0.096 21.438,-0.096L33.688,-0.096C34.581,-0.096 35.314,0.191 35.889,0.766C36.463,1.34 36.75,2.074 36.75,2.967L36.75,6.029L41.344,6.029C42.62,6.093 43.704,6.54 44.598,7.369C45.427,8.262 45.874,9.347 45.938,10.623L45.938,22.873L50.148,24.309C51.297,24.755 51.999,25.489 52.254,26.51C52.445,27.594 52.126,28.583 51.297,29.477L41.631,38.281C39.972,39.238 38.345,39.749 36.75,39.812C34.836,39.749 32.954,39.079 31.104,37.803C30.019,37.037 28.839,36.654 27.562,36.654C26.286,36.654 25.106,37.037 24.021,37.803C22.363,39.015 20.48,39.685 18.375,39.812C16.78,39.749 15.153,39.238 13.494,38.281L3.828,29.477C2.999,28.583 2.68,27.594 2.871,26.51C3.126,25.489 3.828,24.755 4.977,24.309L9.188,22.777L9.188,10.527C9.251,9.251 9.698,8.167 10.527,7.273C11.421,6.444 12.505,5.997 13.781,5.934L18.375,5.934L18.375,2.967ZM15.313,20.863L25.648,17.418C26.924,16.971 28.201,16.971 29.477,17.418L39.813,20.863L39.813,12.154L15.313,12.154L15.313,20.863ZM36.75,42.779C39.43,42.652 41.886,41.822 44.119,40.291L44.215,40.291C45.491,39.462 46.735,39.525 47.947,40.482C49.351,41.631 50.946,42.428 52.732,42.875C53.562,43.066 54.2,43.513 54.646,44.215C55.093,44.917 55.221,45.682 55.029,46.512C54.838,47.341 54.391,47.979 53.689,48.426C52.924,48.872 52.158,49 51.393,48.809C48.968,48.171 47.118,47.373 45.842,46.416C42.971,48.011 39.94,48.84 36.75,48.904C33.624,48.713 31.072,48.107 29.094,47.086C28.52,46.831 28.009,46.576 27.562,46.32C27.116,46.576 26.605,46.831 26.031,47.086C24.053,48.107 21.501,48.713 18.375,48.904C15.121,48.84 12.122,48.011 9.379,46.416C8.039,47.373 6.157,48.171 3.732,48.809C2.903,49 2.137,48.872 1.436,48.426C0.734,47.979 0.287,47.341 0.096,46.512C-0.096,45.682 0.032,44.917 0.479,44.215C0.925,43.513 1.563,43.066 2.393,42.875C4.179,42.428 5.774,41.631 7.178,40.482C8.39,39.525 9.666,39.462 11.006,40.291C13.239,41.822 15.695,42.652 18.375,42.779C21.119,42.715 23.607,41.886 25.84,40.291C26.988,39.525 28.169,39.525 29.381,40.291C31.55,41.886 34.007,42.715 36.75,42.779Z" style="fill:white;fill-rule:nonzero;"/>
        </g>
    </g>
</svg>
