<?xml version="1.0" encoding="UTF-8" standalone="no"?>
<!DOCTYPE svg PUBLIC "-//W3C//DTD SVG 1.1//EN" "http://www.w3.org/Graphics/SVG/1.1/DTD/svg11.dtd">
<svg width="100%" height="100%" viewBox="0 0 1000 1000" version="1.1" xmlns="http://www.w3.org/2000/svg" xmlns:xlink="http://www.w3.org/1999/xlink" xml:space="preserve" xmlns:serif="http://www.serif.com/" style="fill-rule:evenodd;clip-rule:evenodd;stroke-linejoin:round;stroke-miterlimit:2;">
    <g transform="matrix(1.72414,0,0,1.72414,0,0)">
        <circle cx="290" cy="290" r="290" style="fill:rgb(0,0,255);"/>
    </g>
    <g transform="matrix(0.993856,0,0,0.95743,-35.6479,-3.48282)">
        <g id="fountain" transform="matrix(41.6668,0,0,43.2521,538.959,525.869)">
            <g transform="matrix(1,0,0,1,-7,-7)">
                <path id="path4182" d="M0,11L14,11C13,13 9,14 7,14C5,14 1.301,13 0,11ZM9,0.061C8,0.061 7.325,1.096 6.988,1.875C6.651,1.058 6,0.015 5,0.015C3.5,0.015 3,1.939 3,2.939C3,3.939 4,3.614 4,2.97C5,0.97 6,1.356 6.242,4.517L6.242,4.867C5.859,4.678 5.43,4.558 5,4.558C3.533,4.558 2.25,5.591 2.25,7.558L2.25,8.558C2.25,9.558 3.75,9.558 3.75,8.558L3.75,7.558C3.75,6.592 4.433,6.058 5,6.058C5.549,6.058 6.202,6.594 6.242,7.476L6.242,10C7,9.422 7,9.406 7.727,10L7.75,7.558L7.75,7.433C7.791,6.553 8.443,6.017 8.992,6.017C9.559,6.017 10.242,6.551 10.242,7.517L10.242,8.517C10.242,9.517 11.742,9.517 11.742,8.517L11.742,7.517C11.742,5.55 10.459,4.517 8.992,4.517C8.562,4.517 8.133,4.638 7.75,4.828C7.75,4.738 7.733,4.646 7.75,4.558C8,1.814 9,1 10,3C10,3.528 11,3.924 11,2.924C11,1.924 10.5,0.061 9,0.061Z" style="fill:white;"/>
            </g>
            <g>
            </g>
        </g>
    </g>
</svg>
