<?xml version="1.0" encoding="UTF-8" standalone="no"?>
<!DOCTYPE svg PUBLIC "-//W3C//DTD SVG 1.1//EN" "http://www.w3.org/Graphics/SVG/1.1/DTD/svg11.dtd">
<svg width="100%" height="100%" viewBox="0 0 1000 1000" version="1.1" xmlns="http://www.w3.org/2000/svg" xmlns:xlink="http://www.w3.org/1999/xlink" xml:space="preserve" xmlns:serif="http://www.serif.com/" style="fill-rule:evenodd;clip-rule:evenodd;stroke-linejoin:round;stroke-miterlimit:2;">
    <g transform="matrix(1.72414,0,0,1.72414,0,0)">
        <circle cx="290" cy="290" r="290" style="fill:rgb(255,0,255);"/>
    </g>
    <g transform="matrix(11.1252,0,0,10.8309,194.558,269.334)">
        <path id="shopping" d="M9.188,0C10.4,0.064 11.165,0.702 11.484,1.914L11.58,3.063L51.871,3.063C52.892,3.126 53.689,3.541 54.264,4.307C54.838,5.072 55.029,5.965 54.838,6.986L49.67,25.361C49.16,26.765 48.171,27.499 46.703,27.563L16.365,27.563L17.227,32.156L46.703,32.156C48.107,32.284 48.872,33.049 49,34.453C48.872,35.857 48.107,36.622 46.703,36.75L15.217,36.75C14.068,36.686 13.335,36.08 13.016,34.932L7.273,4.594L2.297,4.594C0.893,4.466 0.128,3.701 0,2.297C0.128,0.893 0.893,0.128 2.297,0L9.188,0ZM12.25,44.406C12.314,43.13 12.76,42.046 13.59,41.152C14.483,40.323 15.568,39.876 16.844,39.813C18.12,39.876 19.204,40.323 20.098,41.152C20.927,42.046 21.374,43.13 21.438,44.406C21.374,45.682 20.927,46.767 20.098,47.66C19.204,48.49 18.12,48.936 16.844,49C15.568,48.936 14.483,48.49 13.59,47.66C12.76,46.767 12.314,45.682 12.25,44.406ZM49,44.406C48.936,45.682 48.49,46.767 47.66,47.66C46.767,48.49 45.682,48.936 44.406,49C43.13,48.936 42.046,48.49 41.152,47.66C40.323,46.767 39.876,45.682 39.813,44.406C39.876,43.13 40.323,42.046 41.152,41.152C42.046,40.323 43.13,39.876 44.406,39.813C45.682,39.876 46.767,40.323 47.66,41.152C48.49,42.046 48.936,43.13 49,44.406Z" style="fill:white;fill-rule:nonzero;"/>
    </g>
</svg>
