<?xml version="1.0" encoding="UTF-8" standalone="no"?>
<!DOCTYPE svg PUBLIC "-//W3C//DTD SVG 1.1//EN" "http://www.w3.org/Graphics/SVG/1.1/DTD/svg11.dtd">
<svg width="100%" height="100%" viewBox="0 0 1000 1000" version="1.1" xmlns="http://www.w3.org/2000/svg" xmlns:xlink="http://www.w3.org/1999/xlink" xml:space="preserve" xmlns:serif="http://www.serif.com/" style="fill-rule:evenodd;clip-rule:evenodd;stroke-linejoin:round;stroke-miterlimit:2;">
    <g transform="matrix(1.72414,0,0,1.72414,0,0)">
        <circle cx="290" cy="290" r="290" style="fill:rgb(0,0,255);"/>
    </g>
    <g transform="matrix(14.3094,0,0,14.3094,257,206.937)">
        <path id="toilette" d="M3.063,38.855C3.063,40.004 4.02,40.865 5.168,40.865L9.188,40.865C10.336,40.865 11.293,40.004 11.293,38.855L11.293,25.553L12.25,25.553C13.398,25.553 14.355,24.691 14.355,23.543L14.355,14.355C14.355,12.154 12.441,10.24 10.24,10.24L4.115,10.24C1.914,10.24 0,12.154 0,14.355L0,23.543C0,24.691 0.957,25.553 2.105,25.553L3.063,25.553L3.063,38.855ZM28.615,38.855L28.615,28.615L31.869,28.615C33.305,28.615 34.262,27.275 33.879,25.936L29.572,13.111C28.998,11.389 27.467,10.24 25.648,10.24L25.457,10.24C23.639,10.24 22.107,11.389 21.533,13.111L17.227,25.936C16.844,27.275 17.801,28.615 19.236,28.615L22.49,28.615L22.49,38.855C22.49,40.004 23.447,40.865 24.5,40.865L26.605,40.865C27.658,40.865 28.615,40.004 28.615,38.855ZM7.178,8.23C9.475,8.23 11.293,6.412 11.293,4.115C11.293,1.914 9.475,0.096 7.178,0.096C4.881,0.096 3.063,1.914 3.063,4.115C3.063,6.412 4.881,8.23 7.178,8.23ZM25.553,8.23C27.85,8.23 29.668,6.412 29.668,4.115C29.668,1.914 27.85,0.096 25.553,0.096C23.256,0.096 21.438,1.914 21.438,4.115C21.438,6.412 23.256,8.23 25.553,8.23Z" style="fill:white;fill-rule:nonzero;"/>
    </g>
</svg>
