<?xml version="1.0" encoding="UTF-8" standalone="no"?>
<!DOCTYPE svg PUBLIC "-//W3C//DTD SVG 1.1//EN" "http://www.w3.org/Graphics/SVG/1.1/DTD/svg11.dtd">
<svg width="100%" height="100%" viewBox="0 0 1000 1000" version="1.1" xmlns="http://www.w3.org/2000/svg" xmlns:xlink="http://www.w3.org/1999/xlink" xml:space="preserve" xmlns:serif="http://www.serif.com/" style="fill-rule:evenodd;clip-rule:evenodd;stroke-linejoin:round;stroke-miterlimit:2;">
    <g transform="matrix(1.72414,0,0,1.72414,0,0)">
        <circle cx="290" cy="290" r="290" style="fill:rgb(0,0,255);"/>
    </g>
    <g transform="matrix(13.2966,0,0,13.2966,216.613,207.852)">
        <path d="M33.688,18.375L29.955,18.375C28.424,17.099 26.605,16.206 24.5,15.695L24.5,11.197L21.438,10.814L18.375,11.197L18.375,15.695C16.27,16.206 14.451,17.099 12.92,18.375L1.531,18.375C0.574,18.439 0.064,18.949 0,19.906L0,29.094C0.064,30.051 0.574,30.561 1.531,30.625L10.432,30.625C11.452,32.475 12.92,33.943 14.834,35.027C16.748,36.176 18.949,36.75 21.438,36.75C23.926,36.75 26.127,36.176 28.041,35.027C29.955,33.943 31.423,32.475 32.443,30.625L33.688,30.625C34.581,30.625 35.314,30.912 35.889,31.486C36.463,32.061 36.75,32.794 36.75,33.688C36.75,34.517 37.037,35.251 37.611,35.889C38.186,36.463 38.919,36.75 39.813,36.75L45.938,36.75C46.831,36.75 47.564,36.463 48.139,35.889C48.713,35.314 49,34.581 49,33.688C48.872,29.349 47.373,25.744 44.502,22.873C41.631,20.002 38.026,18.503 33.688,18.375ZM7.848,9.188L21.438,7.752L35.027,9.188C36.048,9.188 36.622,8.645 36.75,7.561L36.75,4.689C36.622,3.605 36.048,3.063 35.027,3.063L24.5,4.211L24.5,1.531C24.436,0.574 23.926,0.064 22.969,0L19.906,0C18.949,0.064 18.439,0.574 18.375,1.531L18.375,4.211L7.848,3.063C6.827,3.063 6.253,3.605 6.125,4.689L6.125,7.561C6.253,8.645 6.827,9.188 7.848,9.188Z" style="fill:white;fill-rule:nonzero;"/>
    </g>
</svg>
