<?xml version="1.0" encoding="UTF-8" standalone="no"?>
<!DOCTYPE svg PUBLIC "-//W3C//DTD SVG 1.1//EN" "http://www.w3.org/Graphics/SVG/1.1/DTD/svg11.dtd">
<svg width="100%" height="100%" viewBox="0 0 1000 1000" version="1.1" xmlns="http://www.w3.org/2000/svg" xmlns:xlink="http://www.w3.org/1999/xlink" xml:space="preserve" xmlns:serif="http://www.serif.com/" style="fill-rule:evenodd;clip-rule:evenodd;stroke-linejoin:round;stroke-miterlimit:2;">
    <g transform="matrix(1.72414,0,0,1.72414,0,0)">
        <circle cx="290" cy="290" r="290"/>
    </g>
    <g transform="matrix(12.5619,0,0,12.5619,229.694,192.233)">
        <path id="fuel" d="M3.063,6.125C3.126,4.402 3.732,2.967 4.881,1.818C6.029,0.67 7.465,0.064 9.188,0L24.5,0C26.223,0.064 27.658,0.67 28.807,1.818C29.955,2.967 30.561,4.402 30.625,6.125L30.625,24.5L31.391,24.5C33.751,24.564 35.729,25.393 37.324,26.988C38.919,28.583 39.749,30.561 39.813,32.922L39.813,35.984C39.94,37.388 40.706,38.154 42.109,38.281C43.513,38.154 44.279,37.388 44.406,35.984L44.406,21.15C43.066,20.831 41.982,20.13 41.152,19.045C40.259,18.024 39.813,16.78 39.813,15.313L39.813,9.188L36.75,6.125C35.921,5.104 35.921,4.083 36.75,3.063C37.771,2.233 38.792,2.233 39.813,3.063L47.182,10.432C48.394,11.644 49,13.111 49,14.834L49,35.984C48.936,37.962 48.266,39.589 46.99,40.865C45.714,42.141 44.087,42.811 42.109,42.875C40.132,42.811 38.505,42.141 37.229,40.865C35.952,39.589 35.283,37.962 35.219,35.984L35.219,32.922C35.219,31.837 34.836,30.912 34.07,30.146C33.368,29.445 32.475,29.062 31.391,28.998L30.625,28.998L30.625,42.875C31.518,42.875 32.252,43.162 32.826,43.736C33.4,44.311 33.688,45.044 33.688,45.938C33.688,46.831 33.4,47.564 32.826,48.139C32.252,48.713 31.518,49 30.625,49L3.063,49C2.169,49 1.436,48.713 0.861,48.139C0.287,47.564 0,46.831 0,45.938C0,45.044 0.287,44.311 0.861,43.736C1.436,43.162 2.169,42.875 3.063,42.875L3.063,6.125ZM9.188,16.844C9.251,17.801 9.762,18.311 10.719,18.375L22.969,18.375C23.926,18.311 24.436,17.801 24.5,16.844L24.5,7.656C24.436,6.699 23.926,6.189 22.969,6.125L10.719,6.125C9.762,6.189 9.251,6.699 9.188,7.656L9.188,16.844Z" style="fill:white;fill-rule:nonzero;"/>
    </g>
</svg>
