<?xml version="1.0" encoding="UTF-8" standalone="no"?>
<!DOCTYPE svg PUBLIC "-//W3C//DTD SVG 1.1//EN" "http://www.w3.org/Graphics/SVG/1.1/DTD/svg11.dtd">
<svg width="100%" height="100%" viewBox="0 0 1000 1000" version="1.1" xmlns="http://www.w3.org/2000/svg" xmlns:xlink="http://www.w3.org/1999/xlink" xml:space="preserve" xmlns:serif="http://www.serif.com/" style="fill-rule:evenodd;clip-rule:evenodd;stroke-linejoin:round;stroke-miterlimit:2;">
    <g transform="matrix(1.72414,0,0,1.72414,0,0)">
        <circle cx="290" cy="290" r="290" style="fill:rgb(255,0,0);"/>
    </g>
    <g transform="matrix(13.6064,0,0,13.6064,124.975,166.644)">
        <path id="shelter" d="M24.404,28.902L24.404,41.344C24.34,42.301 23.83,42.811 22.873,42.875C22.107,42.811 21.629,42.46 21.438,41.822C21.118,41.057 20.608,40.482 19.906,40.1C19.141,39.781 18.343,39.749 17.514,40.004C16.684,40.323 16.11,40.833 15.791,41.535C15.408,42.301 15.376,43.098 15.695,43.928C16.27,45.459 17.227,46.671 18.566,47.564C19.842,48.521 21.278,49 22.873,49C25.106,48.936 26.924,48.171 28.328,46.703C29.796,45.299 30.561,43.481 30.625,41.248L30.625,28.807C29.732,27.977 28.711,27.531 27.562,27.467C26.414,27.594 25.361,28.073 24.404,28.902ZM55.125,26.893C53.594,20.321 50.563,15.153 46.033,11.389C41.503,7.624 36.367,5.423 30.625,4.785L30.625,3.063C30.625,2.169 30.338,1.436 29.764,0.861C29.189,0.287 28.456,0 27.562,0C26.669,0 25.936,0.287 25.361,0.861C24.723,1.436 24.404,2.169 24.404,3.063L24.404,4.785C18.662,5.423 13.558,7.624 9.092,11.389C4.562,15.153 1.531,20.321 0,26.893C-0.064,27.403 0.096,27.818 0.479,28.137C0.861,28.456 1.308,28.392 1.818,27.945C4.307,25.266 6.859,24.149 9.475,24.596C12.027,24.979 14.547,27.275 17.035,31.486C17.673,32.38 18.279,32.38 18.854,31.486C19.811,29.7 20.959,28.105 22.299,26.701C23.639,25.298 25.361,24.564 27.467,24.5C29.189,24.564 30.657,25.074 31.869,26.031C33.081,26.988 34.038,28.009 34.74,29.094C35.442,30.115 35.889,30.848 36.08,31.295C36.144,31.423 36.176,31.486 36.176,31.486C36.75,32.38 37.388,32.38 38.09,31.486C40.514,27.275 43.034,24.979 45.65,24.596C48.202,24.149 50.723,25.266 53.211,27.945C53.785,28.392 54.264,28.456 54.646,28.137C55.029,27.818 55.189,27.403 55.125,26.893Z" style="fill:white;fill-rule:nonzero;"/>
    </g>
</svg>
