<?xml version="1.0" encoding="UTF-8" standalone="no"?>
<!DOCTYPE svg PUBLIC "-//W3C//DTD SVG 1.1//EN" "http://www.w3.org/Graphics/SVG/1.1/DTD/svg11.dtd">
<svg width="100%" height="100%" viewBox="0 0 1000 1000" version="1.1" xmlns="http://www.w3.org/2000/svg" xmlns:xlink="http://www.w3.org/1999/xlink" xml:space="preserve" xmlns:serif="http://www.serif.com/" style="fill-rule:evenodd;clip-rule:evenodd;stroke-linejoin:round;stroke-miterlimit:2;">
    <g transform="matrix(1.72414,0,0,1.72414,0,0)">
        <circle cx="290" cy="290" r="290"/>
    </g>
    <g transform="matrix(11.6618,0,0,11.6618,250,206.834)">
        <path id="trainstation" d="M33.688,0C36.303,0.064 38.473,0.957 40.195,2.68C41.918,4.402 42.811,6.572 42.875,9.188L42.875,33.688C42.811,35.984 42.077,37.962 40.674,39.621C39.206,41.344 37.356,42.396 35.123,42.779L39.525,47.182C39.844,47.564 39.908,47.947 39.717,48.33C39.525,48.713 39.174,48.936 38.664,49L34.932,49C34.102,49 33.4,48.713 32.826,48.139L27.562,42.875L15.313,42.875L10.049,48.139C9.475,48.713 8.773,49 7.943,49L4.115,49C3.605,48.936 3.286,48.713 3.158,48.33C2.967,47.947 3.031,47.564 3.35,47.182L7.752,42.779C5.519,42.396 3.669,41.344 2.201,39.621C0.798,37.962 0.064,35.984 0,33.688L0,9.188C0.064,6.572 0.957,4.402 2.68,2.68C4.402,0.957 6.572,0.064 9.188,0L33.688,0ZM6.125,18.375C6.125,19.268 6.412,20.002 6.986,20.576C7.561,21.15 8.294,21.438 9.188,21.438L33.688,21.438C34.581,21.438 35.314,21.15 35.889,20.576C36.463,20.002 36.75,19.268 36.75,18.375L36.75,9.188C36.75,8.294 36.463,7.561 35.889,6.986C35.314,6.412 34.581,6.125 33.688,6.125L9.188,6.125C8.294,6.125 7.561,6.412 6.986,6.986C6.412,7.561 6.125,8.294 6.125,9.188L6.125,18.375ZM21.438,36.75C22.714,36.686 23.798,36.24 24.691,35.41C25.521,34.517 25.967,33.432 26.031,32.156C25.967,30.88 25.521,29.796 24.691,28.902C23.798,28.073 22.714,27.626 21.438,27.563C20.161,27.626 19.077,28.073 18.184,28.902C17.354,29.796 16.908,30.88 16.844,32.156C16.908,33.432 17.354,34.517 18.184,35.41C19.077,36.24 20.161,36.686 21.438,36.75Z" style="fill:white;fill-rule:nonzero;"/>
    </g>
</svg>
