<svg height="580" width="580" xmlns="http://www.w3.org/2000/svg"><path d="m542 291c0 139.72804-113.27196 253-253 253s-253-113.27196-253-253 113.27196-253 253-253 253 113.27196 253 253z" fill="none" opacity=".8" stroke="#fff" stroke-linejoin="round" stroke-width="64"/><path d="m542 291c0 139.72804-113.27196 253-253 253s-253-113.27196-253-253 113.27196-253 253-253 253 113.27196 253 253z" fill="#734a08"/><g fill="#fff"><path d="m218.1 249c-52 0-95 2.5-95 4.25 0 .1 29.45 229 29.45 229-.15 1.25 29.25 3.05 65.85 3.05 36 0 66-1.7 65.8-3 0-.1 29.025-229.05 29.025-229.05-.125-1.75-42.625-4.25-95.125-4.25zm-46.1 214.3-29-194.3c48 .2 83 2.6 148-1.3l-26.35 196.65c-1.15 1.05-90.65.45-92.65-1.05z"/><path d="m298 266.3-26.3 208-111 1.3-25.35-210.8z" fill-rule="evenodd" opacity=".1"/><path d="m289.6 77.3c0 9 7.4 16.4 16.4 16.4 3.1 0 5.9-.6 8.8-1.5v8.6c-5.3 3.7-9.2 9.2-11.9 14.5-2 3.9-3.5 8.2-4.7 12.7-9.06665-.0641-18.13363-.1015-27.2-.2-36.6-.6-62 20.4-71 40.5-9.4 20-7.7 39-7.7 39l49-3.3s-.1-8.1 3.2-15 5-12.6 26.3-12.3c10.24128.0976 19.66481.14188 30.3.2.7 1.8 1.4 3.5 2.3 5.1 4.8 9.6 13.4 19.3 26.6 19.3s21.8-9.7 26.6-19.3c.8-1.6 1.5-3.2 2.1-4.8l73 .4.3-49-70-.4c-1.2-4.6-2.7-9-4.8-13-2.7-5.4-6.6-10.8-11.9-14.5v-8.7c3 1 5.9 1.6 9.1 1.6 9 0 17.47395-7.464306 16.4-16.4-1.1996-9.981145-8.85098-16.168182-16.7-16.4-5.60241.497449-10.53176 2.429826-14.8 3.9-2.59144-1.924699-5.74359-2.944432-8.97132-2.902261-3.03626.04933-5.98301 1.036268-8.43651 2.825583-5.36807-.874257-10.35563-4.370992-15.39608-3.81166-9.49609.088338-16.89609 7.488338-16.89609 16.488338z"/></g></svg>