<svg height="580" width="580" xmlns="http://www.w3.org/2000/svg"><path d="m479 50.900391-221 .099609c-11-.3-22 8-22 21v23c-15-2-30 2-44 42 0 23 1 46 1 69-24 97-71 153-105 235-16 83 93 121 127 37 4-92 0-188 1-282h20v299h23v34h215v-33h20v-428.099609c0-9.1-5-17-15-17zm-184 47.099609h140c7 0 13 3 13 14v111c0 7-4 13-12 13l-141-1c-8 0-15-6-15-15v-109c0-8 6-13 15-13zm-99 181c2 64 3 129-3 191-21 60-88 41-85-16 29-60 66-133 88-175z" fill="none" opacity=".8" stroke="#fff" stroke-linejoin="round" stroke-width="64"/><path d="m479 50.900391-221 .099609c-11-.3-22 8-22 21v23c-15-2-30 2-44 42 0 23 1 46 1 69-24 97-71 153-105 235-16 83 93 121 127 37 4-92 0-188 1-282h20v299h23v34h215v-33h20v-428.099609c0-9.1-5-17-15-17zm-184 47.099609h140c7 0 13 3 13 14v111c0 7-4 13-12 13l-141-1c-8 0-15-6-15-15v-109c0-8 6-13 15-13zm-99 181c2 64 3 129-3 191-21 60-88 41-85-16 29-60 66-133 88-175z"/></svg>