<svg height="580" width="580" xmlns="http://www.w3.org/2000/svg"><path d="m76 124s-11 85 2 172c7 43 20 86 44 120 25 33 61 56 112 56h28c51.51511-5.744 85.58808-23.28584 117-65 13-1 15.89175-1.19638 36-5 28.75421-7.40611 86.74641-36.73875 112-88 18.7349-54.09102 18.31184-115.43724-17-155-10-10-25-19-42-19h-1c-17 1-31 5-45 11-1-17-3-27-3-27 0-5-4-8-9-8h-324c-5 0-9 3-10 8zm412 85c7.4375 29.47253 9.30868 62.16521-2 85v1c-14 31-46 54-80 62-7.02179 6.00578 9.19723-48.68941 11-61 5-34 7-67 7-95 15-8 30-14 44-15 10.6253 1.74638 16.23838 14.33425 20 23z" fill="none" opacity=".8" stroke="#fff" stroke-linejoin="round" stroke-width="64"/><path d="m76 124s-11 85 2 172c7 43 20 86 44 120 25 33 61 56 112 56h28c51.51511-5.744 85.58808-23.28584 117-65 13-1 15.89175-1.19638 36-5 28.75421-7.40611 86.74641-36.73875 112-88 18.7349-54.09102 18.31184-115.43724-17-155-10-10-25-19-42-19h-1c-17 1-31 5-45 11-1-17-3-27-3-27 0-5-4-8-9-8h-324c-5 0-9 3-10 8zm412 85c7.4375 29.47253 9.30868 62.16521-2 85v1c-14 31-46 54-80 62-7.02179 6.00578 9.19723-48.68941 11-61 5-34 7-67 7-95 15-8 30-14 44-15 10.6253 1.74638 16.23838 14.33425 20 23z" fill="#652506" fill-rule="evenodd"/></svg>