<svg height="580" width="580" xmlns="http://www.w3.org/2000/svg"><path d="m66.275 1.768c-41.335 0-64.571 21.371-64.571 65.036v450.123c0 40.844 20.895 62.229 62.192 62.229h452.024c41.307 0 62.229-20.315 62.229-62.229v-450.123c0-42.601-20.922-65.036-63.521-65.036-.004 0-448.495-.143-448.353 0z" fill="none"/><g transform="matrix(4.0703939 0 0 4.0703939 -1083.7886 -1381.8558)"><g><path d="m348.78208 372.60284c-6.88742 14.60266-13.78726 29.19945-20.71875 43.78125-3.83966-5.29946-7.70451-10.58057-11.59375-15.84375-11.91853 19.07569-23.7213 38.22363-35.71875 57.25 37.43746.31752 74.87509.61481 112.3125.9375-14.10629-30.01312-28.29628-59.98684-42.46875-89.96875-.60417 1.28125-1.20833 2.5625-1.8125 3.84375z" fill="none" stroke="#000" stroke-width="5"/><path d="m350.59375 362.90625-2.25 4.78125-1.8125 3.84375c-6.29252 13.34135-12.61036 26.67706-18.9375 40-3.0311-4.16567-6.06341-8.3256-9.125-12.46875l-2.1875-2.96875-1.9375 3.125c-11.92389 19.08426-23.73037 38.23802-35.71875 57.25l-2.375 3.78125 4.46875.0312c37.43836.31753 74.87622.61482 112.3125.9375l4 .0312-1.71875-3.59375c-14.10827-30.01713-28.2967-59.98762-42.46875-89.96865zm0 42.34375c.75716.002 1.50495.37027 1.96875.96875 2.23609 2.81658 4.41247 5.11927 5.28125 5.46875.43439.17479.32832.20284.78125-.0937.45293-.29659 1.36745-1.25512 2.375-3.21875.42481-.81769 1.32863-1.35665 2.25-1.34375.92136.0129 1.81697.577 2.21875 1.40625l20.375 43.125c.74253 1.52641-.58397 3.61605-2.28125 3.59375l-92.0625-.7813c-.87906-.0121-1.73306-.51067-2.15625-1.28125-.42315-.77058-.399-1.78298.0625-2.53125l18.125-29.09375c.7864-1.26885 2.80873-1.51348 3.875-.46875 1.6156 1.60179 3.01438 2.44959 4.6875 2.5625s4.01716-.51385 7.46875-3.0625c1.05857-.79816 2.75437-.54304 3.53125.53125l1.59375 2.1875 6.5625-13.875c.3838-.83866 1.26576-1.43655 2.1875-1.46875s1.83981.5027 2.28125 1.3125c.64944 1.17852 1.29638 1.8353 1.78125 2.125.48487.28965.79816.34143 1.375.21875 1.15368-.24536 3.37836-1.82644 5.6875-5.1875.44955-.66088 1.23205-1.08225 2.03125-1.09375z"/></g><g><path d="m348.78208 372.60284c-6.88742 14.60266-13.78726 29.19945-20.71875 43.78125-3.83966-5.29946-7.70451-10.58057-11.59375-15.84375-11.91853 19.07569-23.7213 38.22363-35.71875 57.25 37.43746.31752 74.87509.61481 112.3125.9375-14.10629-30.01312-28.29628-59.98684-42.46875-89.96875-.60417 1.28125-1.20833 2.5625-1.8125 3.84375z" fill="none" stroke="#000" stroke-width="5"/><path d="m350.59375 362.90625-2.25 4.78125-1.8125 3.84375c-6.29252 13.34135-12.61036 26.67706-18.9375 40-3.0311-4.16567-6.06341-8.3256-9.125-12.46875l-2.1875-2.96875-1.9375 3.125c-11.92389 19.08426-23.73037 38.23802-35.71875 57.25l-2.375 3.78125 4.46875.0312c37.43836.31753 74.87622.61482 112.3125.9375l4 .0312-1.71875-3.59375c-14.10827-30.01713-28.2967-59.98762-42.46875-89.96865z" opacity=".25"/></g></g></svg>